# 3ds Max Wavefront OBJ Exporter v0.97b - (c)2007 guruware
# File Created: 17.01.2019 12:25:42

mtllib Rearview mirror shell.mtl

#
# object Rearview_mirror_shell
#

v  -12.3246 26.2940 38.8230
v  -12.9781 26.3881 38.9007
v  -13.4450 26.6701 38.9562
v  -13.7251 27.1403 38.9895
v  -13.8185 27.7984 39.0006
v  -13.8185 28.5558 39.0006
v  -7.6314 28.5558 36.9995
v  -8.5691 26.2940 38.3766
v  -4.2575 28.5558 36.9995
v  -3.3198 26.2940 38.3766
v  1.9296 28.5558 39.0006
v  1.9296 27.7984 39.0006
v  1.8362 27.1403 38.9895
v  1.5561 26.6701 38.9562
v  1.0893 26.3881 38.9007
v  0.4357 26.2940 38.8230
v  -13.8185 29.3131 39.0006
v  -13.7251 29.9713 38.9895
v  -13.4450 30.4414 38.9562
v  -12.9781 30.7235 38.9007
v  -12.3246 30.8175 38.8230
v  -7.6314 30.8175 38.3766
v  -6.7156 32.6789 33.9187
v  -6.7156 32.6502 35.1490
v  -5.1733 32.6502 35.1490
v  -5.1733 32.6789 33.9187
v  -4.2575 30.8175 38.3766
v  0.4357 30.8175 38.8230
v  1.0893 30.7235 38.9007
v  1.5561 30.4414 38.9562
v  1.8362 29.9713 38.9895
v  1.9296 29.3131 39.0006
v  -8.5691 26.2940 40.6552
v  -12.3167 26.2940 40.8793
v  -3.3198 26.2940 40.6552
v  0.4279 26.2940 40.8793
v  1.9296 28.5558 40.9691
v  1.9296 27.7984 40.9691
v  1.9296 29.3131 40.9691
v  -3.3198 30.8175 40.6552
v  0.4279 30.8175 40.8793
v  -8.5691 30.8175 40.6552
v  -12.3167 30.8175 40.8793
v  -13.8185 28.5558 40.9691
v  -13.8185 29.3131 40.9691
v  -13.8185 27.7984 40.9691
v  -12.9737 26.3881 40.9186
v  1.0849 26.3881 40.9186
v  1.8357 29.9713 40.9635
v  -12.9737 30.7235 40.9186
v  -13.4430 26.6701 40.9467
v  -13.7246 27.1403 40.9635
v  1.5542 26.6701 40.9467
v  1.8357 27.1403 40.9635
v  1.5542 30.4414 40.9467
v  1.0849 30.7235 40.9186
v  -13.4430 30.4414 40.9467
v  -13.7246 29.9713 40.9635
v  -8.5691 26.4909 40.6552
v  -12.3027 26.4909 40.8793
v  -3.3198 26.4909 40.6552
v  0.4139 26.4909 40.8793
v  1.0176 26.5773 40.9186
v  1.4106 26.8135 40.9467
v  1.6464 27.2074 40.9635
v  1.7327 27.8124 40.9691
v  1.7327 28.5558 40.9691
v  1.7327 29.2992 40.9691
v  1.6464 29.9042 40.9635
v  1.4106 30.2981 40.9467
v  1.0176 30.5343 40.9186
v  0.4139 30.6207 40.8793
v  -3.3198 30.6207 40.6552
v  -8.5691 30.6207 40.6552
v  -12.3027 30.6207 40.8793
v  -12.9064 30.5343 40.9186
v  -13.2994 30.2981 40.9467
v  -13.5353 29.9042 40.9635
v  -13.6216 29.2992 40.9691
v  -13.6216 28.5558 40.9691
v  -13.6216 27.8124 40.9691
v  -13.5353 27.2074 40.9635
v  -13.2994 26.8135 40.9467
v  -12.9064 26.5773 40.9186
v  -6.9227 29.1611 37.3681
v  -4.9662 29.4892 37.3681
v  -6.9227 30.2122 38.0080
v  -4.9662 30.2737 38.0080
v  -6.9227 30.9752 34.6024
v  -4.9662 30.8431 34.6024
v  -6.9227 31.4692 35.7295
v  -4.9662 31.2118 35.7295
# 92 vertices

vn -0.1289 -0.7182 -0.6838
vn -0.3145 -0.6953 -0.6463
vn -0.5849 -0.5208 -0.6218
vn -0.7453 -0.2405 -0.6218
vn -0.7603 -0.0485 -0.6477
vn -0.8086 0.0000 -0.5883
vn -0.1327 0.0164 -0.9910
vn -0.0378 -0.8577 -0.5127
vn 0.1587 -0.0117 -0.9873
vn 0.0378 -0.8577 -0.5127
vn 0.8086 0.0000 -0.5883
vn 0.7603 -0.0485 -0.6477
vn 0.7453 -0.2405 -0.6218
vn 0.5849 -0.5208 -0.6218
vn 0.3145 -0.6953 -0.6463
vn 0.1289 -0.7182 -0.6838
vn -0.7603 0.0485 -0.6477
vn -0.7453 0.2405 -0.6218
vn -0.5849 0.5208 -0.6218
vn -0.3145 0.6953 -0.6463
vn -0.1228 0.6595 -0.7416
vn -0.0241 0.8653 -0.5006
vn -0.5271 0.4935 -0.6918
vn -0.5414 0.7232 0.4288
vn 0.5490 0.7004 0.4561
vn 0.5299 0.5008 -0.6844
vn 0.0309 0.8681 -0.4954
vn 0.1228 0.6595 -0.7416
vn 0.3145 0.6953 -0.6463
vn 0.5849 0.5208 -0.6218
vn 0.7453 0.2405 -0.6218
vn 0.7603 0.0485 -0.6477
vn 0.0209 -0.7139 0.6999
vn -0.0120 -0.7232 0.6905
vn -0.0209 -0.7139 0.6999
vn 0.0120 -0.7232 0.6905
vn 0.7071 -0.0000 0.7071
vn 0.7194 -0.0538 0.6925
vn 0.7194 0.0538 0.6925
vn -0.0209 0.7139 0.6999
vn 0.0120 0.7232 0.6905
vn 0.0209 0.7139 0.6999
vn -0.0120 0.7232 0.6905
vn -0.7071 -0.0000 0.7071
vn -0.7194 0.0538 0.6925
vn -0.7194 -0.0538 0.6925
vn -0.2194 -0.7135 0.6655
vn 0.2194 -0.7135 0.6655
vn 0.6977 0.2595 0.6678
vn -0.2194 0.7135 0.6655
vn -0.5160 -0.5477 0.6586
vn -0.6977 -0.2595 0.6678
vn 0.5160 -0.5477 0.6586
vn 0.6977 -0.2595 0.6678
vn 0.5160 0.5477 0.6586
vn 0.2194 0.7135 0.6655
vn -0.5160 0.5477 0.6586
vn -0.6977 0.2595 0.6678
vn 0.0300 -0.0000 0.9996
vn 0.0621 -0.0044 0.9981
vn -0.0300 -0.0000 0.9996
vn -0.0621 -0.0044 0.9981
vn -0.0603 -0.0214 0.9980
vn -0.0356 -0.0357 0.9987
vn -0.0078 -0.0220 0.9997
vn -0.0003 -0.0046 1.0000
vn 0.0000 -0.0000 1.0000
vn -0.0003 0.0046 1.0000
vn -0.0078 0.0220 0.9997
vn -0.0356 0.0357 0.9987
vn -0.0603 0.0214 0.9980
vn -0.0621 0.0044 0.9981
vn 0.0621 0.0044 0.9981
vn 0.0603 0.0214 0.9980
vn 0.0356 0.0357 0.9987
vn 0.0078 0.0220 0.9997
vn 0.0003 0.0046 1.0000
vn 0.0003 -0.0046 1.0000
vn 0.0078 -0.0220 0.9997
vn 0.0356 -0.0357 0.9987
vn 0.0603 -0.0214 0.9980
vn -0.3006 0.2844 -0.9104
vn 0.5485 0.1210 -0.8274
vn -0.3068 0.7187 -0.6240
vn 0.1833 0.7932 -0.5808
vn -0.6783 -0.4315 -0.5948
vn 0.6364 -0.5010 -0.5865
vn -0.7599 0.4794 0.4390
vn 0.8309 0.4321 0.3506
# 89 vertex normals

vt 0.9051 0.0000 0.0000
vt 0.9466 0.0208 0.0000
vt 0.9763 0.0831 0.0000
vt 0.9941 0.1871 0.0000
vt 1.0000 0.3326 0.0000
vt 1.0000 0.5000 0.0000
vt 0.6667 0.5000 0.0000
vt 0.6667 0.0000 0.0000
vt 0.3333 0.5000 0.0000
vt 0.3333 0.0000 0.0000
vt -0.0000 0.5000 0.0000
vt -0.0000 0.3326 0.0000
vt 0.0059 0.1871 0.0000
vt 0.0237 0.0831 0.0000
vt 0.0534 0.0208 0.0000
vt 0.0949 0.0000 0.0000
vt 1.0000 0.6674 0.0000
vt 0.9941 0.8129 0.0000
vt 0.9763 0.9169 0.0000
vt 0.9466 0.9792 0.0000
vt 0.9051 1.0000 0.0000
vt 0.6667 1.0000 0.0000
vt 0.3333 1.0000 0.0000
vt 0.0949 1.0000 0.0000
vt 0.0534 0.9792 0.0000
vt 0.0237 0.9169 0.0000
vt 0.0059 0.8129 0.0000
vt -0.0000 0.6674 0.0000
vt 0.0954 1.0000 0.0000
vt 0.9046 1.0000 0.0000
vt 0.3326 0.0000 0.0000
vt 0.5000 0.0000 0.0000
vt 0.5000 1.0000 0.0000
vt 0.3326 1.0000 0.0000
vt 0.6674 0.0000 0.0000
vt 0.6674 1.0000 0.0000
vt 1.6876 0.9544 0.0000
vt 1.4326 0.9658 0.0000
vt 1.4299 -0.0677 0.0000
vt 1.6840 -0.0902 0.0000
vt -0.6840 -0.0902 0.0000
vt -0.4299 -0.0677 0.0000
vt -0.4326 0.9658 0.0000
vt -0.6876 0.9544 0.0000
vt -1.4468 0.1822 0.0000
vt -1.0614 0.1366 0.0000
vt -1.0612 1.0687 0.0000
vt -1.4468 1.0916 0.0000
vt 1.1775 0.9772 0.0000
vt 1.1757 -0.0451 0.0000
vt 0.9225 0.9886 0.0000
vt 0.9216 -0.0226 0.0000
vt -0.1757 -0.0451 0.0000
vt -0.1775 0.9772 0.0000
vt 0.0784 -0.0226 0.0000
vt 0.0775 0.9886 0.0000
vt -0.6760 0.0911 0.0000
vt -0.6757 1.0458 0.0000
vt -0.2905 0.0455 0.0000
vt -0.2902 1.0229 0.0000
vt 0.0954 0.0000 0.0000
vt 0.9046 0.0000 0.0000
vt 0.9464 0.0208 0.0000
vt 0.9762 0.0831 0.0000
vt 0.9940 0.1871 0.0000
vt 0.9940 0.8129 0.0000
vt 0.9762 0.9169 0.0000
vt 0.9464 0.9792 0.0000
vt 0.0536 0.9792 0.0000
vt 0.0238 0.9169 0.0000
vt 0.0060 0.8129 0.0000
vt 0.0000 0.6674 0.0000
vt 0.0000 0.5000 0.0000
vt 0.0000 0.3326 0.0000
vt 0.0060 0.1871 0.0000
vt 0.0238 0.0831 0.0000
vt 0.0536 0.0208 0.0000
# 77 texture coords

o Rearview_mirror_shell
g Rearview_mirror_shell
usemtl 01___Default
s 1
f 1/1/1 2/2/2 3/3/3 4/4/4 5/5/5 6/6/6 7/7/7 8/8/8 
f 8/8/8 7/7/7 9/9/9 10/10/10 
f 10/10/10 9/9/9 11/11/11 12/12/12 13/13/13 14/14/14 15/15/15 16/16/16 
s 2
f 6/6/6 17/17/17 18/18/18 19/19/19 20/20/20 21/21/21 22/22/22 7/7/7 
f 23/7/23 24/22/24 25/23/25 26/9/26 
f 9/9/9 27/23/27 28/24/28 29/25/29 30/26/30 31/27/31 32/28/32 11/11/11 
s 4
f 1/16/1 8/10/8 33/23/33 34/29/34 
f 8/10/8 10/8/10 35/22/35 33/23/33 
f 10/8/10 16/1/16 36/30/36 35/22/35 
f 12/31/12 11/32/11 37/33/37 38/34/38 
f 11/32/11 32/35/32 39/36/39 37/33/37 
f 28/16/28 27/10/27 40/23/40 41/29/41 
f 27/10/27 22/8/22 42/22/42 40/23/40 
f 22/8/22 21/1/21 43/30/43 42/22/42 
f 17/31/17 6/32/6 44/33/44 45/34/45 
f 6/32/6 5/35/5 46/36/46 44/33/44 
f 34/37/34 47/38/47 2/39/2 1/40/1 
f 16/41/16 15/42/15 48/43/48 36/44/36 
f 32/45/32 31/46/31 49/47/49 39/48/39 
f 21/41/21 20/42/20 50/43/50 43/44/43 
f 47/38/47 51/49/51 3/50/3 2/39/2 
f 51/49/51 52/51/52 4/52/4 3/50/3 
f 52/51/52 46/36/46 5/35/5 4/52/4 
f 15/42/15 14/53/14 53/54/53 48/43/48 
f 14/53/14 13/55/13 54/56/54 53/54/53 
f 13/55/13 12/31/12 38/34/38 54/56/54 
f 31/46/31 30/57/30 55/58/55 49/47/49 
f 30/57/30 29/59/29 56/60/56 55/58/55 
f 29/59/29 28/16/28 41/29/41 56/60/56 
f 20/42/20 19/53/19 57/54/57 50/43/50 
f 19/53/19 18/55/18 58/56/58 57/54/57 
f 18/55/18 17/31/17 45/34/45 58/56/58 
s off
f 34/61/34 33/10/33 59/10/59 60/61/60 
f 33/10/33 35/8/35 61/8/61 59/10/59 
f 35/8/35 36/62/36 62/62/62 61/8/61 
f 36/62/36 48/63/48 63/63/63 62/62/62 
f 48/63/48 53/64/53 64/64/64 63/63/63 
f 53/64/53 54/65/54 65/65/65 64/64/64 
f 54/65/54 38/5/38 66/5/66 65/65/65 
f 38/5/38 37/6/37 67/6/67 66/5/66 
f 37/6/37 39/17/39 68/17/68 67/6/67 
f 39/17/39 49/66/49 69/66/69 68/17/68 
f 49/66/49 55/67/55 70/67/70 69/66/69 
f 55/67/55 56/68/56 71/68/71 70/67/70 
f 56/68/56 41/30/41 72/30/72 71/68/71 
f 41/30/41 40/22/40 73/22/61 72/30/72 
f 40/22/40 42/23/42 74/23/59 73/22/61 
f 42/23/42 43/29/43 75/29/73 74/23/59 
f 43/29/43 50/69/50 76/69/74 75/29/73 
f 50/69/50 57/70/57 77/70/75 76/69/74 
f 57/70/57 58/71/58 78/71/76 77/70/75 
f 58/71/58 45/72/45 79/72/77 78/71/76 
f 45/72/45 44/73/44 80/73/67 79/72/77 
f 44/73/44 46/74/46 81/74/78 80/73/67 
f 46/74/46 52/75/52 82/75/79 81/74/78 
f 52/75/52 51/76/51 83/76/80 82/75/79 
f 51/76/51 47/77/47 84/77/81 83/76/80 
f 47/77/47 34/61/34 60/61/60 84/77/81 
f 9/9/9 7/7/7 85/7/82 86/9/83 
f 7/7/7 22/22/22 87/22/84 85/7/82 
f 22/22/22 27/23/27 88/23/85 87/22/84 
f 27/23/27 9/9/9 86/9/83 88/23/85 
f 86/9/83 85/7/82 89/7/86 90/9/87 
f 85/7/82 87/22/84 91/22/88 89/7/86 
f 87/22/84 88/23/85 92/23/89 91/22/88 
f 88/23/85 86/9/83 90/9/87 92/23/89 
f 90/9/87 89/7/86 23/7/23 26/9/26 
f 89/7/86 91/22/88 24/22/24 23/7/23 
f 91/22/88 92/23/89 25/23/25 24/22/24 
f 92/23/89 90/9/87 26/9/26 25/23/25 
# 70 polygons

