# 3ds Max Wavefront OBJ Exporter v0.97b - (c)2007 guruware
# File Created: 17.01.2019 12:26:15

mtllib right blinker light.mtl

#
# object Right_blinker_light
#

v  -18.2865 16.6237 23.7761
v  -19.6194 16.6237 23.6595
v  -19.6194 17.2263 23.6595
v  -18.2865 17.2263 23.7761
v  -18.3054 16.6237 23.9919
v  -18.3054 17.2263 23.9919
v  -19.6383 17.2263 23.8753
v  -19.6383 16.6237 23.8753
v  -18.1110 16.9352 23.8410
v  -18.1213 16.9352 23.9585
v  -18.1213 16.9148 23.9585
v  -18.1110 16.9148 23.8410
v  -18.2136 17.2617 23.7867
v  -18.2125 17.0993 23.7746
v  -18.2122 16.9250 23.7705
v  -18.2125 16.7507 23.7746
v  -18.2136 16.5882 23.7867
v  -18.2153 16.4488 23.8060
v  -18.2175 16.3417 23.8312
v  -18.2200 16.2744 23.8604
v  -18.2228 16.2515 23.8919
v  -18.2255 16.2744 23.9233
v  -18.2281 16.3417 23.9525
v  -18.2303 16.4488 23.9777
v  -18.2320 16.5882 23.9970
v  -18.2330 16.7507 24.0091
v  -18.2334 16.9250 24.0132
v  -18.2330 17.0993 24.0091
v  -18.2320 17.2617 23.9970
v  -18.2303 17.4012 23.9777
v  -18.2281 17.5082 23.9525
v  -18.2255 17.5755 23.9233
v  -18.2228 17.5985 23.8919
v  -18.2200 17.5755 23.8604
v  -18.2175 17.5082 23.8312
v  -18.2153 17.4012 23.8060
v  -18.0950 17.1944 23.8183
v  -18.1244 17.1706 23.8074
v  -18.1538 17.1468 23.7964
v  -18.1832 17.1231 23.7855
v  -18.0964 17.3060 23.8337
v  -18.0982 17.3916 23.8538
v  -18.1002 17.4454 23.8773
v  -18.1024 17.4638 23.9024
v  -18.1046 17.4454 23.9275
v  -18.1066 17.3916 23.9509
v  -18.1084 17.3060 23.9711
v  -18.1098 17.1944 23.9865
v  -18.1106 17.0644 23.9962
v  -18.1109 16.9250 23.9995
v  -18.1106 16.7855 23.9962
v  -18.1098 16.6556 23.9865
v  -18.1084 16.5440 23.9711
v  -18.1066 16.4584 23.9509
v  -18.1046 16.4046 23.9275
v  -18.1024 16.3862 23.9024
v  -18.1002 16.4046 23.8773
v  -18.0982 16.4584 23.8538
v  -18.0964 16.5440 23.8337
v  -18.0950 16.6556 23.8183
v  -18.0942 16.7855 23.8086
v  -18.1827 16.8901 23.7800
v  -18.1532 16.8553 23.7895
v  -18.1237 16.8204 23.7991
v  -17.9756 16.9250 23.8401
v  -17.9759 17.0296 23.8426
v  -18.0057 17.0708 23.8365
v  -18.0355 17.1120 23.8304
v  -18.0652 17.1532 23.8244
v  -17.9765 17.1270 23.8498
v  -17.9775 17.2107 23.8614
v  -17.9788 17.2749 23.8765
v  -17.9804 17.3153 23.8941
v  -17.9820 17.3291 23.9129
v  -17.9837 17.3153 23.9318
v  -17.9852 17.2749 23.9493
v  -17.9865 17.2107 23.9644
v  -17.9875 17.1270 23.9760
v  -17.9882 17.0296 23.9833
v  -17.9884 16.9250 23.9857
v  -17.9882 16.8204 23.9833
v  -17.9875 16.7229 23.9760
v  -17.9865 16.6393 23.9644
v  -17.9852 16.5750 23.9493
v  -17.9837 16.5347 23.9318
v  -17.9820 16.5209 23.9129
v  -17.9804 16.5347 23.8941
v  -17.9788 16.5750 23.8765
v  -17.9775 16.6393 23.8614
v  -17.9765 16.7229 23.8498
v  -17.9759 16.8204 23.8426
v  -18.0646 16.8204 23.8165
v  -18.0349 16.8553 23.8243
v  -18.0053 16.8901 23.8322
v  -17.8575 16.9947 23.8765
v  -17.8574 16.9250 23.8749
v  -17.8580 17.0597 23.8814
v  -17.8586 17.1155 23.8891
v  -17.8595 17.1583 23.8992
v  -17.8605 17.1852 23.9109
v  -17.8616 17.1944 23.9234
v  -17.8627 17.1852 23.9360
v  -17.8638 17.1583 23.9477
v  -17.8646 17.1155 23.9578
v  -17.8653 17.0597 23.9655
v  -17.8657 16.9947 23.9703
v  -17.8659 16.9250 23.9720
v  -17.8657 16.8553 23.9703
v  -17.8653 16.7903 23.9655
v  -17.8646 16.7345 23.9578
v  -17.8638 16.6917 23.9477
v  -17.8627 16.6648 23.9360
v  -17.8616 16.6556 23.9234
v  -17.8605 16.6648 23.9109
v  -17.8595 16.6917 23.8992
v  -17.8586 16.7345 23.8891
v  -17.8580 16.7903 23.8814
v  -17.8575 16.8553 23.8765
v  -17.7392 16.9599 23.9105
v  -17.7391 16.9250 23.9097
v  -17.7394 16.9923 23.9130
v  -17.7398 17.0202 23.9168
v  -17.7402 17.0416 23.9218
v  -17.7407 17.0551 23.9277
v  -17.7413 17.0597 23.9340
v  -17.7418 17.0551 23.9403
v  -17.7423 17.0416 23.9461
v  -17.7428 17.0202 23.9511
v  -17.7431 16.9923 23.9550
v  -17.7433 16.9599 23.9574
v  -17.7434 16.9250 23.9583
v  -17.7433 16.8901 23.9574
v  -17.7431 16.8576 23.9550
v  -17.7428 16.8297 23.9511
v  -17.7423 16.8083 23.9461
v  -17.7418 16.7949 23.9403
v  -17.7413 16.7903 23.9340
v  -17.7407 16.7949 23.9277
v  -17.7402 16.8083 23.9218
v  -17.7398 16.8297 23.9168
v  -17.7394 16.8576 23.9130
v  -17.7392 16.8901 23.9105
v  -17.6209 16.9250 23.9445
v  -18.0793 16.8204 23.8121
v  -18.1096 17.1663 23.8116
v  -18.2081 17.2081 23.7861
v  -18.2081 16.6419 23.7861
v  -18.2264 16.6419 23.9957
v  -18.2264 17.2081 23.9957
v  -18.1534 17.0819 23.7916
v  -18.1530 16.9250 23.7879
v  -18.1089 16.8204 23.8034
v  -18.1236 16.8553 23.7982
v  -18.1383 16.8901 23.7930
v  -18.0941 16.8204 23.8078
v  -18.0940 16.8553 23.8069
v  -18.0940 16.8901 23.8061
v  -18.0939 16.9250 23.8053
v  -18.0645 16.8553 23.8156
v  -18.0496 16.8901 23.8192
v  -18.0348 16.9250 23.8227
v  -18.0800 17.1575 23.8201
v  -18.0650 17.1207 23.8219
v  -18.0500 17.0839 23.8238
v  -18.0350 17.0470 23.8256
v  -18.0948 17.1619 23.8159
v  -18.0946 17.1294 23.8134
v  -18.0944 17.0969 23.8110
v  -18.0942 17.0644 23.8086
v  -18.1242 17.1381 23.8049
v  -18.1388 17.1100 23.7983
v  -18.1527 17.1535 23.8002
v  -18.1527 16.6965 23.8002
v  -18.1203 17.0625 23.8185
v  -18.1203 16.7874 23.8185
v  -18.1694 16.6965 23.9914
v  -18.1694 17.1535 23.9914
v  -18.1344 16.7874 23.9790
v  -18.1344 17.0625 23.9790
# 179 vertices

vn 0.1563 -0.7039 -0.6929
vn -0.5248 -0.5774 -0.6255
vn -0.5248 0.5774 -0.6255
vn 0.1563 0.7039 -0.6929
vn 0.0336 -0.7039 0.7095
vn 0.0336 0.7039 0.7095
vn -0.6255 0.5774 0.5248
vn -0.6255 -0.5774 0.5248
vn 0.9980 0.0533 0.0339
vn 0.9887 0.0533 0.1400
vn 0.9887 -0.0533 0.1400
vn 0.9980 -0.0533 0.0339
vn -0.3569 0.4724 -0.8059
vn -0.7364 -0.2021 0.6456
vn -0.7386 0.0000 0.6741
vn -0.3449 -0.2476 -0.9054
vn -0.3569 -0.4724 -0.8059
vn -0.3744 -0.6568 -0.6546
vn -0.3950 -0.7912 -0.4669
vn -0.4163 -0.8720 -0.2576
vn -0.4366 -0.8989 -0.0382
vn -0.4547 -0.8720 0.1814
vn -0.4701 -0.7912 0.3913
vn -0.4824 -0.6568 0.5796
vn -0.4914 -0.4724 0.7317
vn -0.4969 -0.2476 0.8317
vn -0.4987 0.0000 0.8668
vn -0.4969 0.2476 0.8317
vn -0.4914 0.4724 0.7317
vn -0.4824 0.6568 0.5796
vn -0.4701 0.7912 0.3913
vn -0.4547 0.8720 0.1814
vn -0.4365 0.8989 -0.0382
vn -0.4163 0.8720 -0.2576
vn -0.3950 0.7912 -0.4669
vn -0.3744 0.6568 -0.6546
vn 0.3061 0.5207 -0.7970
vn 0.3155 -0.2853 -0.9050
vn 0.5194 -0.2798 -0.8074
vn 0.4290 0.8953 0.1203
vn 0.6493 0.3278 -0.6863
vn 0.7853 -0.4128 -0.4614
vn 0.3772 0.6859 -0.6223
vn 0.6273 0.5939 -0.5037
vn 0.6065 0.7198 -0.3377
vn 0.5855 0.7968 -0.1495
vn 0.5664 0.8226 0.0496
vn 0.5506 0.7968 0.2489
vn 0.5386 0.7198 0.4379
vn 0.5303 0.5939 0.6050
vn 0.5253 0.4245 0.7375
vn 0.5227 0.2215 0.8232
vn 0.5219 -0.0000 0.8530
vn 0.5227 -0.2215 0.8232
vn 0.5253 -0.4245 0.7375
vn 0.5303 -0.5939 0.6050
vn 0.5386 -0.7198 0.4379
vn 0.5506 -0.7968 0.2489
vn 0.5664 -0.8226 0.0496
vn 0.5855 -0.7968 -0.1495
vn 0.6065 -0.7198 -0.3377
vn 0.6273 -0.5939 -0.5037
vn 0.6454 -0.4245 -0.6350
vn 0.5106 0.4891 -0.7071
vn 0.7158 0.0204 -0.6980
vn -0.3264 -0.8739 -0.3603
vn 0.7224 0.0262 -0.6910
vn 0.4560 -0.8821 -0.1181
vn 0.8536 -0.4079 0.3241
vn 0.8432 0.3278 0.4261
vn 0.3827 0.2611 -0.8862
vn 0.3868 0.0000 -0.9222
vn 0.6070 0.7801 0.1518
vn -0.2585 -0.7279 -0.6351
vn 0.6572 0.3494 -0.6679
vn 0.6454 0.4245 -0.6350
vn 0.6577 -0.2215 -0.7200
vn 0.1868 0.5637 -0.8046
vn 0.6953 -0.6781 -0.2383
vn -0.1993 0.8362 -0.5110
vn 0.6577 0.2215 -0.7200
vn 0.6621 0.0000 -0.7494
vn -0.9962 0.0000 -0.0872
vn 0.6579 -0.1125 -0.7446
vn 0.4521 0.6490 -0.6119
vn 0.4521 -0.6490 -0.6119
vn 0.3390 -0.6490 0.6811
vn 0.3390 0.6490 0.6811
vn 0.6621 -0.0000 -0.7494
vn 0.7929 0.4633 -0.3957
vn 0.7929 -0.4633 -0.3957
vn 0.9649 0.2227 -0.1391
vn 0.9649 -0.2227 -0.1391
vn 0.7122 -0.4633 0.5274
vn 0.7122 0.4633 0.5274
vn 0.9261 -0.2227 0.3046
vn 0.9261 0.2227 0.3046
# 97 vertex normals

vt 0.8811 0.0000 0.0000
vt 0.0000 0.0000 0.0000
vt 0.0000 1.0000 0.0000
vt 0.8811 1.0000 0.0000
vt 0.1189 0.0000 0.0000
vt 0.1189 1.0000 0.0000
vt 1.0000 1.0000 0.0000
vt 1.0000 0.0000 0.0000
vt 0.1221 0.1221 0.0000
vt 0.1221 0.8779 0.0000
vt 0.8779 0.8779 0.0000
vt 0.8779 0.1221 0.0000
vt 0.8333 0.0000 1.0000
vt 0.7917 0.0000 1.0000
vt 0.7500 0.0000 1.0000
vt 0.2787 0.0000 -0.1317
vt 0.1676 0.0000 -0.3860
vt 0.0792 0.0000 -0.6140
vt 0.0194 0.0000 -0.8002
vt -0.0076 0.0000 -0.9319
vt 0.0000 0.0000 -1.0000
vt 0.0417 0.0000 -1.0000
vt 0.1146 0.0000 -0.9318
vt 0.2137 0.0000 -0.8002
vt 0.3324 0.0000 -0.6140
vt 0.4625 0.0000 -0.3860
vt 0.5952 0.0000 -0.1317
vt 0.7213 0.0000 0.1317
vt 0.8324 0.0000 0.3860
vt 0.9208 0.0000 0.6140
vt 0.9806 0.0000 0.8002
vt 1.0076 0.0000 0.9319
vt 1.0000 0.0000 1.0000
vt 0.9583 0.0000 1.0000
vt 0.9167 0.0000 1.0000
vt 0.8750 0.0000 1.0000
vt 0.8333 0.2000 0.8000
vt 0.8151 0.1875 0.8125
vt 0.8021 0.1500 0.8500
vt 0.7943 0.0875 0.9125
vt 0.8750 0.2000 0.8000
vt 0.9167 0.2000 0.8000
vt 0.9583 0.2000 0.8000
vt 1.0000 0.2000 0.8000
vt 0.0000 0.0000 1.0000
vt 0.0417 0.0000 1.0000
vt 0.0417 0.2000 0.8000
vt 0.0000 0.2000 0.8000
vt 0.0833 0.0000 1.0000
vt 0.0833 0.2000 0.8000
vt 0.1250 0.0000 1.0000
vt 0.1250 0.2000 0.8000
vt 0.1667 0.0000 1.0000
vt 0.1667 0.2000 0.8000
vt 0.2083 0.0000 1.0000
vt 0.2083 0.2000 0.8000
vt 0.2500 0.0000 1.0000
vt 0.2500 0.2000 0.8000
vt 0.2917 0.0000 1.0000
vt 0.2917 0.2000 0.8000
vt 0.3333 0.0000 1.0000
vt 0.3333 0.2000 0.8000
vt 0.3750 0.0000 1.0000
vt 0.3750 0.2000 0.8000
vt 0.4167 0.0000 1.0000
vt 0.4167 0.2000 0.8000
vt 0.4583 0.0000 1.0000
vt 0.4583 0.2000 0.8000
vt 0.5000 0.0000 1.0000
vt 0.5000 0.2000 0.8000
vt 0.5417 0.0000 1.0000
vt 0.5417 0.2000 0.8000
vt 0.5833 0.0000 1.0000
vt 0.5833 0.2000 0.8000
vt 0.6250 0.0000 1.0000
vt 0.6250 0.2000 0.8000
vt 0.6667 0.0000 1.0000
vt 0.6667 0.2000 0.8000
vt 0.7083 0.0000 1.0000
vt 0.7083 0.2000 0.8000
vt 0.7474 0.0875 0.9125
vt 0.7396 0.1500 0.8500
vt 0.7266 0.1875 0.8125
vt 0.7500 0.4000 0.6000
vt 0.7917 0.4000 0.6000
vt 0.7943 0.3125 0.6875
vt 0.8021 0.2500 0.7500
vt 0.8151 0.2125 0.7875
vt 0.8333 0.4000 0.6000
vt 0.8750 0.4000 0.6000
vt 0.9167 0.4000 0.6000
vt 0.9583 0.4000 0.6000
vt 1.0000 0.4000 0.6000
vt 0.0417 0.4000 0.6000
vt 0.0000 0.4000 0.6000
vt 0.0833 0.4000 0.6000
vt 0.1250 0.4000 0.6000
vt 0.1667 0.4000 0.6000
vt 0.2083 0.4000 0.6000
vt 0.2500 0.4000 0.6000
vt 0.2917 0.4000 0.6000
vt 0.3333 0.4000 0.6000
vt 0.3750 0.4000 0.6000
vt 0.4167 0.4000 0.6000
vt 0.4583 0.4000 0.6000
vt 0.5000 0.4000 0.6000
vt 0.5417 0.4000 0.6000
vt 0.5833 0.4000 0.6000
vt 0.6250 0.4000 0.6000
vt 0.6667 0.4000 0.6000
vt 0.7083 0.4000 0.6000
vt 0.7266 0.2125 0.7875
vt 0.7396 0.2500 0.7500
vt 0.7474 0.3125 0.6875
vt 0.7917 0.6000 0.4000
vt 0.7500 0.6000 0.4000
vt 0.8333 0.6000 0.4000
vt 0.8750 0.6000 0.4000
vt 0.9167 0.6000 0.4000
vt 0.9583 0.6000 0.4000
vt 1.0000 0.6000 0.4000
vt 0.0417 0.6000 0.4000
vt 0.0000 0.6000 0.4000
vt 0.0833 0.6000 0.4000
vt 0.1250 0.6000 0.4000
vt 0.1667 0.6000 0.4000
vt 0.2083 0.6000 0.4000
vt 0.2500 0.6000 0.4000
vt 0.2917 0.6000 0.4000
vt 0.3333 0.6000 0.4000
vt 0.3750 0.6000 0.4000
vt 0.4167 0.6000 0.4000
vt 0.4583 0.6000 0.4000
vt 0.5000 0.6000 0.4000
vt 0.5417 0.6000 0.4000
vt 0.5833 0.6000 0.4000
vt 0.6250 0.6000 0.4000
vt 0.6667 0.6000 0.4000
vt 0.7083 0.6000 0.4000
vt 0.7917 0.8000 0.2000
vt 0.7500 0.8000 0.2000
vt 0.8333 0.8000 0.2000
vt 0.8750 0.8000 0.2000
vt 0.9167 0.8000 0.2000
vt 0.9583 0.8000 0.2000
vt 1.0000 0.8000 0.2000
vt 0.0417 0.8000 0.2000
vt 0.0000 0.8000 0.2000
vt 0.0833 0.8000 0.2000
vt 0.1250 0.8000 0.2000
vt 0.1667 0.8000 0.2000
vt 0.2083 0.8000 0.2000
vt 0.2500 0.8000 0.2000
vt 0.2917 0.8000 0.2000
vt 0.3333 0.8000 0.2000
vt 0.3750 0.8000 0.2000
vt 0.4167 0.8000 0.2000
vt 0.4583 0.8000 0.2000
vt 0.5000 0.8000 0.2000
vt 0.5417 0.8000 0.2000
vt 0.5833 0.8000 0.2000
vt 0.6250 0.8000 0.2000
vt 0.6667 0.8000 0.2000
vt 0.7083 0.8000 0.2000
vt 0.5000 1.0000 0.0000
vt 0.7500 0.2000 0.8000
vt 0.7917 0.2000 0.8000
vt 0.1517 -0.7396 0.0000
vt 0.1443 -0.5242 0.0000
vt 0.8557 -0.5242 0.0000
vt 0.8483 -0.7396 0.0000
vt 0.8483 1.7396 0.0000
vt 0.8557 1.5242 0.0000
vt 0.1443 1.5242 0.0000
vt 0.1517 1.7396 0.0000
vt 0.5345 -0.0549 0.0000
vt 0.6204 -0.0107 0.0000
vt 0.6204 1.0107 0.0000
vt 0.5345 1.0549 0.0000
vt 0.4655 1.0549 0.0000
vt 0.3796 1.0107 0.0000
vt 0.3796 -0.0107 0.0000
vt 0.4655 -0.0549 0.0000
vt 0.7917 0.1000 0.9000
vt 0.7500 0.1000 0.9000
vt 0.7500 0.3000 0.7000
vt 0.7917 0.3000 0.7000
vt 0.1369 -0.3088 0.0000
vt 0.8631 -0.3088 0.0000
vt 0.1295 -0.0934 0.0000
vt 0.8705 -0.0934 0.0000
vt 0.8631 1.3088 0.0000
vt 0.1369 1.3088 0.0000
vt 0.8705 1.0934 0.0000
vt 0.1295 1.0934 0.0000
vt 0.7062 0.0336 0.0000
vt 0.7062 0.9664 0.0000
vt 0.7921 0.0778 0.0000
vt 0.7921 0.9222 0.0000
vt 0.2938 0.9664 0.0000
vt 0.2938 0.0336 0.0000
vt 0.2079 0.9222 0.0000
vt 0.2079 0.0778 0.0000
# 203 texture coords

o Right_blinker_light
g Right_blinker_light
usemtl 07___Default
s 1
f 1/1/1 2/2/2 3/3/3 4/4/4 
f 5/5/5 6/6/6 7/7/7 8/8/8 
f 1/5/1 5/6/5 8/7/8 2/8/2 
s 2
f 2/2/2 8/3/8 7/7/7 3/8/3 
s 1
f 3/2/3 7/3/7 6/4/6 4/1/4 
f 9/9/9 10/10/10 11/11/11 12/12/12 
f 13/13/13 14/14/14 15/15/15 16/16/16 17/17/17 18/18/18 19/19/19 20/20/20 21/21/21 22/22/22 23/23/23 24/24/24 25/25/25 26/26/26 27/27/27 28/28/28 29/29/29 30/30/30 31/31/31 32/32/32 33/33/33 34/34/34 35/35/35 36/36/36 
s 2
f 15/15/15 14/14/14 14/14/37 15/15/38 
f 14/14/14 13/13/13 37/37/39 37/37/40 38/38/41 39/39/42 40/40/43 14/14/37 
f 13/13/13 36/36/36 41/41/44 37/37/39 
f 36/36/36 35/35/35 42/42/45 41/41/44 
f 35/35/35 34/34/34 43/43/46 42/42/45 
f 34/34/34 33/33/33 44/44/47 43/43/46 
f 33/45/33 32/46/32 45/47/48 44/48/47 
f 32/46/32 31/49/31 46/50/49 45/47/48 
f 31/49/31 30/51/30 47/52/50 46/50/49 
f 30/51/30 29/53/29 48/54/51 47/52/50 
f 29/53/29 28/55/28 49/56/52 48/54/51 
f 28/55/28 27/57/27 50/58/53 49/56/52 
f 27/57/27 26/59/26 51/60/54 50/58/53 
f 26/59/26 25/61/25 52/62/55 51/60/54 
f 25/61/25 24/63/24 53/64/56 52/62/55 
f 24/63/24 23/65/23 54/66/57 53/64/56 
f 23/65/23 22/67/22 55/68/58 54/66/57 
f 22/67/22 21/69/21 56/70/59 55/68/58 
f 21/69/21 20/71/20 57/72/60 56/70/59 
f 20/71/20 19/73/19 58/74/61 57/72/60 
f 19/73/19 18/75/18 59/76/62 58/74/61 
f 18/75/18 17/77/17 60/78/63 59/76/62 
f 17/77/17 16/79/16 61/80/64 60/78/63 
f 16/79/16 15/15/15 15/15/38 62/81/65 63/82/66 64/83/67 61/80/68 61/80/64 
f 65/84/69 66/85/70 66/85/71 65/84/72 
f 66/85/70 67/86/73 68/87/74 69/88/75 37/37/40 37/37/39 70/89/76 66/85/71 
f 37/37/39 41/41/44 71/90/44 70/89/76 
f 41/41/44 42/42/45 72/91/45 71/90/44 
f 42/42/45 43/43/46 73/92/46 72/91/45 
f 43/43/46 44/44/47 74/93/47 73/92/46 
f 44/48/47 45/47/48 75/94/48 74/95/47 
f 45/47/48 46/50/49 76/96/49 75/94/48 
f 46/50/49 47/52/50 77/97/50 76/96/49 
f 47/52/50 48/54/51 78/98/51 77/97/50 
f 48/54/51 49/56/52 79/99/52 78/98/51 
f 49/56/52 50/58/53 80/100/53 79/99/52 
f 50/58/53 51/60/54 81/101/54 80/100/53 
f 51/60/54 52/62/55 82/102/55 81/101/54 
f 52/62/55 53/64/56 83/103/56 82/102/55 
f 53/64/56 54/66/57 84/104/57 83/103/56 
f 54/66/57 55/68/58 85/105/58 84/104/57 
f 55/68/58 56/70/59 86/106/59 85/105/58 
f 56/70/59 57/72/60 87/107/60 86/106/59 
f 57/72/60 58/74/61 88/108/61 87/107/60 
f 58/74/61 59/76/62 89/109/62 88/108/61 
f 59/76/62 60/78/63 90/110/63 89/109/62 
f 60/78/63 61/80/64 91/111/77 90/110/63 
f 61/80/64 61/80/68 92/112/78 93/113/79 94/114/80 65/84/69 65/84/72 91/111/77 
f 65/84/72 66/85/71 95/115/81 96/116/82 
f 66/85/71 70/89/76 97/117/76 95/115/81 
f 70/89/76 71/90/44 98/118/44 97/117/76 
f 71/90/44 72/91/45 99/119/45 98/118/44 
f 72/91/45 73/92/46 100/120/46 99/119/45 
f 73/92/46 74/93/47 101/121/47 100/120/46 
f 74/95/47 75/94/48 102/122/48 101/123/47 
f 75/94/48 76/96/49 103/124/49 102/122/48 
f 76/96/49 77/97/50 104/125/50 103/124/49 
f 77/97/50 78/98/51 105/126/51 104/125/50 
f 78/98/51 79/99/52 106/127/52 105/126/51 
f 79/99/52 80/100/53 107/128/53 106/127/52 
f 80/100/53 81/101/54 108/129/54 107/128/53 
f 81/101/54 82/102/55 109/130/55 108/129/54 
f 82/102/55 83/103/56 110/131/56 109/130/55 
f 83/103/56 84/104/57 111/132/57 110/131/56 
f 84/104/57 85/105/58 112/133/58 111/132/57 
f 85/105/58 86/106/59 113/134/59 112/133/58 
f 86/106/59 87/107/60 114/135/60 113/134/59 
f 87/107/60 88/108/61 115/136/61 114/135/60 
f 88/108/61 89/109/62 116/137/62 115/136/61 
f 89/109/62 90/110/63 117/138/63 116/137/62 
f 90/110/63 91/111/77 118/139/77 117/138/63 
f 91/111/77 65/84/72 96/116/82 118/139/77 
f 96/116/82 95/115/81 119/140/81 120/141/82 
f 95/115/81 97/117/76 121/142/76 119/140/81 
f 97/117/76 98/118/44 122/143/44 121/142/76 
f 98/118/44 99/119/45 123/144/45 122/143/44 
f 99/119/45 100/120/46 124/145/46 123/144/45 
f 100/120/46 101/121/47 125/146/47 124/145/46 
f 101/123/47 102/122/48 126/147/48 125/148/47 
f 102/122/48 103/124/49 127/149/49 126/147/48 
f 103/124/49 104/125/50 128/150/50 127/149/49 
f 104/125/50 105/126/51 129/151/51 128/150/50 
f 105/126/51 106/127/52 130/152/52 129/151/51 
f 106/127/52 107/128/53 131/153/53 130/152/52 
f 107/128/53 108/129/54 132/154/54 131/153/53 
f 108/129/54 109/130/55 133/155/55 132/154/54 
f 109/130/55 110/131/56 134/156/56 133/155/55 
f 110/131/56 111/132/57 135/157/57 134/156/56 
f 111/132/57 112/133/58 136/158/58 135/157/57 
f 112/133/58 113/134/59 137/159/59 136/158/58 
f 113/134/59 114/135/60 138/160/60 137/159/59 
f 114/135/60 115/136/61 139/161/61 138/160/60 
f 115/136/61 116/137/62 140/162/62 139/161/61 
f 116/137/62 117/138/63 141/163/63 140/162/62 
f 117/138/63 118/139/77 142/164/77 141/163/63 
f 118/139/77 96/116/82 120/141/82 142/164/77 
f 120/141/82 119/140/81 143/165/83 143/165/83 
f 119/140/81 121/142/76 143/165/83 143/165/83 
f 121/142/76 122/143/44 143/165/83 143/165/83 
f 122/143/44 123/144/45 143/165/83 143/165/83 
f 123/144/45 124/145/46 143/165/83 143/165/83 
f 124/145/46 125/146/47 143/165/83 143/165/83 
f 125/148/47 126/147/48 143/165/83 143/165/83 
f 126/147/48 127/149/49 143/165/83 143/165/83 
f 127/149/49 128/150/50 143/165/83 143/165/83 
f 128/150/50 129/151/51 143/165/83 143/165/83 
f 129/151/51 130/152/52 143/165/83 143/165/83 
f 130/152/52 131/153/53 143/165/83 143/165/83 
f 131/153/53 132/154/54 143/165/83 143/165/83 
f 132/154/54 133/155/55 143/165/83 143/165/83 
f 133/155/55 134/156/56 143/165/83 143/165/83 
f 134/156/56 135/157/57 143/165/83 143/165/83 
f 135/157/57 136/158/58 143/165/83 143/165/83 
f 136/158/58 137/159/59 143/165/83 143/165/83 
f 137/159/59 138/160/60 143/165/83 143/165/83 
f 138/160/60 139/161/61 143/165/83 143/165/83 
f 139/161/61 140/162/62 143/165/83 143/165/83 
f 140/162/62 141/163/63 143/165/83 143/165/83 
f 141/163/63 142/164/77 143/165/83 143/165/83 
f 142/164/77 120/141/82 143/165/83 143/165/83 
s 1
f 143/165/83 143/165/83 143/165/83 143/165/83 143/165/83 143/165/83 143/165/83 143/165/83 143/165/83 143/165/83 143/165/83 143/165/83 143/165/83 143/165/83 143/165/83 143/165/83 143/165/83 143/165/83 143/165/83 143/165/83 143/165/83 143/165/83 143/165/83 143/165/83 
s 2
f 92/112/78 61/80/68 144/166/84 
f 38/38/41 37/37/40 145/167/41 
s 1
f 4/168/4 146/169/85 147/170/86 1/171/1 
f 5/172/5 148/173/87 149/174/88 6/175/6 
f 1/176/1 147/177/86 148/178/87 5/179/5 
f 6/180/6 149/181/88 146/182/85 4/183/4 
s 2
f 14/14/37 150/184/81 151/185/89 15/15/38 
f 61/80/68 64/83/67 152/166/84 
f 64/83/67 63/82/66 153/166/84 152/166/84 
f 63/82/66 62/81/65 154/166/84 153/166/84 
f 62/81/65 15/15/38 151/185/89 154/166/84 
f 61/80/68 152/166/84 155/166/84 
f 152/166/84 153/166/84 156/166/84 155/166/84 
f 153/166/84 154/166/84 157/166/84 156/166/84 
f 154/166/84 151/185/89 158/166/89 157/166/84 
f 61/80/68 155/166/84 144/166/84 
f 155/166/84 156/166/84 159/166/84 144/166/84 
f 156/166/84 157/166/84 160/166/84 159/166/84 
f 157/166/84 158/166/89 161/186/89 160/166/84 
f 144/166/84 159/166/84 93/113/79 92/112/78 
f 159/166/84 160/166/84 94/114/80 93/113/79 
f 160/166/84 161/186/89 65/84/69 94/114/80 
f 37/37/40 69/88/75 162/167/41 
f 69/88/75 68/87/74 163/167/41 162/167/41 
f 68/87/74 67/86/73 164/167/41 163/167/41 
f 67/86/73 66/85/70 165/187/81 164/167/41 
f 37/37/40 162/167/41 166/167/41 
f 162/167/41 163/167/41 167/167/41 166/167/41 
f 163/167/41 164/167/41 168/167/41 167/167/41 
f 164/167/41 165/187/81 169/167/81 168/167/41 
f 37/37/40 166/167/41 145/167/41 
f 166/167/41 167/167/41 170/167/41 145/167/41 
f 167/167/41 168/167/41 171/167/41 170/167/41 
f 168/167/41 169/167/81 150/184/81 171/167/41 
f 145/167/41 170/167/41 39/39/42 38/38/41 
f 170/167/41 171/167/41 40/40/43 39/39/42 
f 171/167/41 150/184/81 14/14/37 40/40/43 
s 1
f 146/169/85 172/188/90 173/189/91 147/170/86 
f 172/188/90 174/190/92 175/191/93 173/189/91 
f 174/190/92 9/9/9 12/12/12 175/191/93 
f 148/173/87 176/192/94 177/193/95 149/174/88 
f 176/192/94 178/194/96 179/195/97 177/193/95 
f 178/194/96 11/11/11 10/10/10 179/195/97 
f 147/177/86 173/196/91 176/197/94 148/178/87 
f 173/196/91 175/198/93 178/199/96 176/197/94 
f 175/198/93 12/12/12 11/11/11 178/199/96 
f 149/181/88 177/200/95 172/201/90 146/182/85 
f 177/200/95 179/202/97 174/203/92 172/201/90 
f 179/202/97 10/10/10 9/9/9 174/203/92 
s 2
f 150/184/81 169/167/81 158/166/89 151/185/89 
f 169/167/81 165/187/81 161/186/89 158/166/89 
f 165/187/81 66/85/70 65/84/69 161/186/89 
# 172 polygons - 8 triangles

