# 3ds Max Wavefront OBJ Exporter v0.97b - (c)2007 guruware
# File Created: 09.01.2019 14:17:00

mtllib Rearview mirror.mtl

#
# object Rearview_mirror
#

v  -12.6366 26.4485 20.9040
v  -13.3838 26.6985 20.9689
v  -13.6329 27.4485 20.9906
v  -13.6329 28.5448 20.9906
v  -8.5118 28.5448 20.5454
v  -8.5118 26.4485 20.5454
v  -3.3906 28.5448 20.5454
v  -3.3906 26.4485 20.5454
v  1.7305 28.5448 20.9906
v  1.7305 27.4485 20.9906
v  1.4814 26.6985 20.9689
v  0.7342 26.4485 20.9040
v  -13.6329 29.6410 20.9906
v  -13.3838 30.3910 20.9689
v  -12.6366 30.6410 20.9040
v  -8.5118 30.6410 20.5454
v  -3.3906 30.6410 20.5454
v  0.7342 30.6410 20.9040
v  1.4814 30.3910 20.9689
v  1.7305 29.6410 20.9906
v  -13.6329 27.4485 22.1717
v  -13.3838 26.6985 22.1500
v  -12.6366 26.4485 22.0851
v  -8.5118 26.4485 21.7265
v  -8.5118 28.5448 21.7265
v  -13.6329 28.5448 22.1717
v  -3.3906 26.4485 21.7265
v  -3.3906 28.5448 21.7265
v  0.7342 26.4485 22.0851
v  1.4814 26.6985 22.1500
v  1.7305 27.4485 22.1717
v  1.7305 28.5448 22.1717
v  -8.5118 30.6410 21.7265
v  -12.6366 30.6410 22.0851
v  -13.3838 30.3910 22.1500
v  -13.6329 29.6410 22.1717
v  -3.3906 30.6410 21.7265
v  1.7305 29.6410 22.1717
v  1.4814 30.3910 22.1500
v  0.7342 30.6410 22.0851
# 40 vertices

vn -0.1697 -0.7269 -0.6654
vn -0.5862 -0.5521 -0.5929
vn -0.7595 -0.1148 -0.6404
vn -0.7371 0.0000 -0.6758
vn -0.0433 0.0000 -0.9991
vn -0.0311 -0.6975 -0.7159
vn 0.0433 0.0000 -0.9991
vn 0.0311 -0.6975 -0.7159
vn 0.7371 0.0000 -0.6758
vn 0.7595 -0.1148 -0.6404
vn 0.5862 -0.5521 -0.5929
vn 0.1697 -0.7269 -0.6654
vn -0.7595 0.1148 -0.6404
vn -0.5862 0.5521 -0.5929
vn -0.1697 0.7269 -0.6654
vn -0.0311 0.6975 -0.7159
vn 0.0311 0.6975 -0.7159
vn 0.1697 0.7269 -0.6654
vn 0.5862 0.5521 -0.5929
vn 0.7595 0.1148 -0.6404
vn -0.6996 -0.1219 0.7041
vn -0.5240 -0.5584 0.6431
vn -0.0674 -0.7341 0.6757
vn 0.0302 -0.7170 0.6964
vn 0.0433 -0.0000 0.9991
vn -0.6758 -0.0000 0.7371
vn -0.0302 -0.7170 0.6964
vn -0.0433 -0.0000 0.9991
vn 0.0674 -0.7341 0.6757
vn 0.5240 -0.5584 0.6431
vn 0.6996 -0.1219 0.7041
vn 0.6758 -0.0000 0.7371
vn 0.0302 0.7170 0.6964
vn -0.0674 0.7341 0.6757
vn -0.5240 0.5584 0.6431
vn -0.6996 0.1219 0.7041
vn -0.0302 0.7170 0.6964
vn 0.6996 0.1219 0.7041
vn 0.5240 0.5584 0.6431
vn 0.0674 0.7341 0.6757
# 40 vertex normals

vt 0.9352 0.0000 0.0000
vt 0.9838 0.0596 0.0000
vt 1.0000 0.2385 0.0000
vt 1.0000 0.5000 0.0000
vt 0.6667 0.5000 0.0000
vt 0.6667 0.0000 0.0000
vt 0.3333 0.5000 0.0000
vt 0.3333 0.0000 0.0000
vt -0.0000 0.5000 0.0000
vt -0.0000 0.2385 0.0000
vt 0.0162 0.0596 0.0000
vt 0.0648 0.0000 0.0000
vt 1.0000 0.7615 0.0000
vt 0.9838 0.9404 0.0000
vt 0.9352 1.0000 0.0000
vt 0.6667 1.0000 0.0000
vt 0.3333 1.0000 0.0000
vt 0.0648 1.0000 0.0000
vt 0.0162 0.9404 0.0000
vt -0.0000 0.7615 0.0000
vt 0.0000 0.2385 0.0000
vt 0.0000 0.5000 0.0000
vt 0.0000 0.7615 0.0000
vt 0.2385 0.0000 0.0000
vt 0.5000 0.0000 0.0000
vt 0.5000 1.0000 0.0000
vt 0.2385 1.0000 0.0000
vt 0.7615 0.0000 0.0000
vt 0.7615 1.0000 0.0000
vt 1.8141 0.9267 0.0000
vt 1.2878 0.9633 0.0000
vt 1.2878 -0.0367 0.0000
vt 1.8141 -0.0733 0.0000
vt -0.8141 -0.0733 0.0000
vt -0.2878 -0.0367 0.0000
vt -0.2878 0.9633 0.0000
vt -0.8141 0.9267 0.0000
vt -2.0760 0.1798 0.0000
vt -1.0056 0.0899 0.0000
vt -1.0056 1.0899 0.0000
vt -2.0760 1.1798 0.0000
# 41 texture coords

o Rearview_mirror
g Rearview_mirror
usemtl wire_198225087
s 1
f 1/1/1 2/2/2 3/3/3 4/4/4 5/5/5 6/6/6 
f 6/6/6 5/5/5 7/7/7 8/8/8 
f 8/8/8 7/7/7 9/9/9 10/10/10 11/11/11 12/12/12 
f 4/4/4 13/13/13 14/14/14 15/15/15 16/16/16 5/5/5 
f 5/5/5 16/16/16 17/17/17 7/7/7 
f 7/7/7 17/17/17 18/18/18 19/19/19 20/20/20 9/9/9 
f 21/21/21 22/11/22 23/12/23 24/8/24 25/7/25 26/22/26 
f 24/8/24 27/6/27 28/5/28 25/7/25 
f 27/6/27 29/1/29 30/2/30 31/3/31 32/4/32 28/5/28 
f 26/22/26 25/7/25 33/17/33 34/18/34 35/19/35 36/23/36 
f 25/7/25 28/5/28 37/16/37 33/17/33 
f 28/5/28 32/4/32 38/13/38 39/14/39 40/15/40 37/16/37 
s 2
f 1/12/1 6/8/6 24/17/24 23/18/23 
f 6/8/6 8/6/8 27/16/27 24/17/24 
f 8/6/8 12/1/12 29/15/29 27/16/27 
s 4
f 10/24/10 9/25/9 32/26/32 31/27/31 
f 9/25/9 20/28/20 38/29/38 32/26/32 
s 2
f 18/12/18 17/8/17 37/17/37 40/18/40 
f 17/8/17 16/6/16 33/16/33 37/17/37 
f 16/6/16 15/1/15 34/15/34 33/16/33 
s 4
f 13/24/13 4/25/4 26/26/26 36/27/36 
f 4/25/4 3/28/3 21/29/21 26/26/26 
s 2
f 23/30/23 22/31/22 2/32/2 1/33/1 
f 12/34/12 11/35/11 30/36/30 29/37/29 
s 4
f 20/38/20 19/39/19 39/40/39 38/41/38 
s 2
f 15/34/15 14/35/14 35/36/35 34/37/34 
s 4
f 22/31/22 21/29/21 3/28/3 2/32/2 
f 11/35/11 10/24/10 31/27/31 30/36/30 
s 2
f 19/39/19 18/12/18 40/18/40 39/40/39 
s 4
f 14/35/14 13/24/13 36/27/36 35/36/35 
# 30 polygons

